<?xml version="1.0" encoding="UTF-8"?>
<svg id="katman_2" data-name="katman 2" xmlns="http://www.w3.org/2000/svg" viewBox="0 0 371.71 65.1">
  <defs>
    <style>
      .cls-1 {
        fill: #1c92d2;
      }
    </style>
  </defs>
  <g id="katman_1" data-name="katman 1">
    <path class="cls-1" d="M41.99,49.99h-22.66l-1.99,6.34c-1.44,4.57-5.67,7.68-10.47,7.68H0L19.37,8.44c1.54-4.41,5.69-7.36,10.36-7.36h9.65l21.94,62.94h-6.87c-4.79,0-9.03-3.11-10.47-7.68l-1.99-6.34ZM22.75,39.02h15.83l-7.91-25.45-7.91,25.45Z"/>
    <path class="cls-1" d="M118.78,1.08h3.06v41.72c0,7.55-1.87,13.16-5.62,16.81-3.75,3.66-9.16,5.48-16.23,5.48-2.82,0-5.52-.27-8.09-.81-2.58-.54-4.92-1.32-7.01-2.34l.99-11.87c2.04,1.38,4.11,2.37,6.2,2.97,2.1.6,4.32.9,6.65.9,3,0,5.26-.84,6.79-2.52,1.53-1.68,2.29-4.59,2.29-8.72V12.05c0-6.06,4.91-10.97,10.97-10.97Z"/>
    <path class="cls-1" d="M191.61,49.99h-22.66l-1.99,6.34c-1.44,4.57-5.67,7.68-10.47,7.68h-6.87l19.37-55.58c1.54-4.41,5.69-7.36,10.36-7.36h9.65l21.94,62.94h-6.87c-4.79,0-9.03-3.11-10.47-7.68l-1.99-6.34ZM172.37,39.02h15.83l-7.91-25.45-7.91,25.45Z"/>
    <path class="cls-1" d="M251.5,1.08h4.86l24.28,43.16V1.08h13.58v62.94h-9.41c-3.96,0-7.62-2.14-9.56-5.59l-21.13-37.57v32.19c0,6.06-4.91,10.97-10.97,10.97h-2.61V12.05c0-6.06,4.91-10.97,10.97-10.97Z"/>
    <path class="cls-1" d="M327.47,17.71c0-5.51,2.01-9.85,6.02-12.99,4.02-3.15,9.8-4.72,17.35-4.72,3.12,0,6.17.27,9.17.81,3,.54,5.78,1.32,8.36,2.34l-.23,2.58c-.37,4.27-4.42,7.15-8.61,6.25-2.59-.55-5.16-.83-7.71-.83-3.66,0-6.26.57-7.82,1.71-1.56,1.14-2.34,2.58-2.34,4.32,0,1.92.78,3.61,2.34,5.08,1.56,1.47,4.5,2.92,8.81,4.36,6.59,2.22,11.39,4.89,14.39,8,3,3.12,4.5,7.07,4.5,11.87,0,5.93-2.01,10.52-6.02,13.76-4.02,3.24-10.13,4.86-18.34,4.86-3.42,0-6.85-.36-10.3-1.08-3.45-.72-6.55-1.77-9.31-3.15l.2-2.23c.4-4.52,4.86-7.43,9.2-6.11.03,0,.06.02.09.03,3.09.93,6.31,1.39,9.67,1.39s5.81-.55,7.73-1.66c1.92-1.11,2.88-2.83,2.88-5.17,0-1.08-.18-2.07-.54-2.97-.36-.9-1-1.72-1.93-2.47-.93-.75-2.17-1.48-3.73-2.2-1.56-.72-3.51-1.47-5.84-2.25-6.17-1.92-10.72-4.46-13.62-7.64-2.91-3.18-4.36-7.13-4.36-11.87Z"/>
  </g>
</svg>