<?xml version="1.0" encoding="UTF-8"?>
<svg id="katman_2" data-name="katman 2" xmlns="http://www.w3.org/2000/svg" viewBox="0 0 290.7 62.94">
  <defs>
    <style>
      .cls-1 {
        fill: #fff;
      }
    </style>
  </defs>
  <g id="katman_1" data-name="katman 1">
    <path class="cls-1" d="M41.99,48.91h-22.66l-1.99,6.34c-1.44,4.57-5.67,7.68-10.47,7.68H0L19.37,7.36c1.54-4.41,5.69-7.36,10.36-7.36h9.65l21.94,62.94h-6.87c-4.79,0-9.03-3.11-10.47-7.68l-1.99-6.34ZM22.75,37.94h15.83l-7.91-25.45-7.91,25.45Z"/>
    <path class="cls-1" d="M101.87,0h3.06v49.27c0,1.49,1.21,2.7,2.7,2.7h17.44c6.06,0,10.97,4.91,10.97,10.97h0s-34.17,0-34.17,0c-6.06,0-10.97-4.91-10.97-10.97V10.97c0-6.06,4.91-10.97,10.97-10.97Z"/>
    <path class="cls-1" d="M182.08,25.27l12.17-20c1.99-3.27,5.54-5.27,9.37-5.27h9.03l-23.56,38.3v24.64h-14.03v-24.64L151.51,0h9.03c3.83,0,7.38,2,9.37,5.27l12.17,20Z"/>
    <path class="cls-1" d="M271.37,48.91h-22.66l-1.99,6.34c-1.44,4.57-5.67,7.68-10.47,7.68h-6.87l19.37-55.58c1.54-4.41,5.69-7.36,10.36-7.36h9.65l21.94,62.94h-6.87c-4.79,0-9.03-3.11-10.47-7.68l-1.99-6.34ZM252.13,37.94h15.83l-7.91-25.45-7.91,25.45Z"/>
  </g>
</svg>