<?xml version="1.0" encoding="UTF-8"?>
<svg id="katman_2" data-name="katman 2" xmlns="http://www.w3.org/2000/svg" xmlns:xlink="http://www.w3.org/1999/xlink" viewBox="0 0 452.94 340.9">
  <defs>
    <style>
      .cls-1 {
        fill: url(#Adsız_degrade_4);
      }

      .cls-2 {
        fill: url(#Adsız_degrade_3);
      }

      .cls-3 {
        fill: url(#Adsız_degrade_2);
      }

      .cls-4 {
        fill: #054977;
      }

      .cls-5 {
        fill: #18608c;
      }
    </style>
    <linearGradient id="Adsız_degrade_2" data-name="Adsız degrade 2" x1="167.7" y1="106.37" x2="277.46" y2="16.89" gradientUnits="userSpaceOnUse">
      <stop offset="0" stop-color="#0d78c6"/>
      <stop offset="1" stop-color="#23b9eb"/>
    </linearGradient>
    <linearGradient id="Adsız_degrade_4" data-name="Adsız degrade 4" x1="137.68" y1="192.96" x2="329.24" y2="147.23" gradientUnits="userSpaceOnUse">
      <stop offset="0" stop-color="#073c5c"/>
      <stop offset="1" stop-color="#014378"/>
    </linearGradient>
    <linearGradient id="Adsız_degrade_3" data-name="Adsız degrade 3" x1="207.05" y1="94.96" x2="285.03" y2="66.7" gradientUnits="userSpaceOnUse">
      <stop offset="0" stop-color="#005590"/>
      <stop offset="1" stop-color="#074e88"/>
    </linearGradient>
  </defs>
  <g id="katman_1" data-name="katman 1">
    <g>
      <path class="cls-5" d="M0,318.64c0-8.51,5.01-13.7,11.71-13.7,3.2,0,5.71,1.56,7.25,3.25l-1.84,2.19c-1.39-1.48-3.13-2.49-5.36-2.49-4.98,0-8.3,4.08-8.3,10.66s3.17,10.79,8.17,10.79c2.52,0,4.43-1.1,6.11-2.96l1.84,2.11c-2.08,2.42-4.67,3.81-8.09,3.81-6.57,0-11.49-5.08-11.49-13.65ZM7.91,339.26c3.36-.21,4.37-.82,4.37-1.99,0-1.03-.82-1.59-3.11-1.91l1.76-3.66h2.16l-1.18,2.67c1.84.43,2.93,1.21,2.93,2.85,0,2.33-2.37,3.47-6.61,3.68l-.33-1.64Z"/>
      <path class="cls-5" d="M31.83,318.52c0-8.45,4.65-13.58,11.27-13.58s11.27,5.14,11.27,13.58-4.65,13.77-11.27,13.77-11.27-5.32-11.27-13.77ZM50.91,318.52c0-6.57-3.1-10.63-7.81-10.63s-7.81,4.05-7.81,10.63,3.1,10.82,7.81,10.82,7.81-4.24,7.81-10.82ZM37.01,301.08c0-1.16.83-1.97,1.97-1.97s1.97.81,1.97,1.97-.83,1.97-1.97,1.97-1.97-.81-1.97-1.97ZM45.26,301.08c0-1.16.83-1.97,1.97-1.97s1.97.81,1.97,1.97-.83,1.97-1.97,1.97-1.97-.81-1.97-1.97Z"/>
      <path class="cls-5" d="M67.47,329.81l13.89-21.54h-12.64v-2.84h16.79v2l-13.89,21.54h14.02v2.84h-18.17v-2Z"/>
      <path class="cls-5" d="M100.48,320.91v-15.49h3.36v15.58c0,6.34,2.68,8.33,6.12,8.33s6.25-1.99,6.25-8.33v-15.58h3.22v15.49c0,8.46-4.09,11.38-9.47,11.38s-9.48-2.91-9.48-11.38ZM103.86,301.08c0-1.16.83-1.97,1.97-1.97s1.97.81,1.97,1.97-.83,1.97-1.97,1.97-1.97-.81-1.97-1.97ZM112.11,301.08c0-1.16.83-1.97,1.97-1.97s1.97.81,1.97,1.97-.83,1.97-1.97,1.97-1.97-.81-1.97-1.97Z"/>
      <path class="cls-5" d="M136.55,305.43h4.04l5.06,14.09c.63,1.8,1.24,3.66,1.87,5.5h.16c.63-1.83,1.19-3.69,1.82-5.5l5-14.09h4.04v26.38h-3.12v-14.52c0-2.3.26-5.47.43-7.8h-.16l-2.09,6.02-4.97,13.64h-2.22l-4.99-13.64-2.09-6.02h-.16c.17,2.33.43,5.5.43,7.8v14.52h-3.04v-26.38Z"/>
      <path class="cls-5" d="M192.37,318.52c0-8.45,4.65-13.58,11.27-13.58s11.27,5.14,11.27,13.58-4.65,13.77-11.27,13.77-11.27-5.32-11.27-13.77ZM211.45,318.52c0-6.57-3.1-10.63-7.81-10.63s-7.81,4.05-7.81,10.63,3.1,10.82,7.81,10.82,7.81-4.24,7.81-10.82Z"/>
      <path class="cls-5" d="M230.63,305.43h8.26c5.37,0,9.23,1.93,9.23,7.42s-3.86,7.8-9.23,7.8h-4.9v11.15h-3.36v-26.38ZM238.41,317.93c4.11,0,6.37-1.66,6.37-5.08s-2.26-4.7-6.37-4.7h-4.42v9.78h4.42ZM238.23,319.74l2.63-1.74,8.05,13.81h-3.81l-6.87-12.07Z"/>
      <path class="cls-5" d="M268.47,308.27h-7.98v-2.84h19.32v2.84h-7.98v23.54h-3.36v-23.54Z"/>
      <path class="cls-5" d="M298.38,305.43h3.79l8.92,26.38h-3.56l-4.6-14.73c-.95-2.95-1.79-5.84-2.64-8.89h-.16c-.82,3.06-1.66,5.94-2.61,8.89l-4.65,14.73h-3.42l8.92-26.38ZM294.15,321.09h12.15v2.68h-12.15v-2.68Z"/>
      <path class="cls-5" d="M322.93,318.64c0-8.51,5.11-13.7,12.11-13.7,3.66,0,6.06,1.66,7.61,3.25l-1.84,2.19c-1.34-1.38-3.03-2.49-5.68-2.49-5.31,0-8.73,4.08-8.73,10.66s3.14,10.79,8.76,10.79c1.89,0,3.71-.57,4.75-1.55v-6.87h-5.58v-2.78h8.65v11.09c-1.7,1.77-4.59,3.06-8.13,3.06-6.96,0-11.91-5.08-11.91-13.65ZM329.2,298.28l2.02-.34c.31,1.9,1.55,3.4,3.85,3.4s3.54-1.5,3.85-3.4l2.02.34c-.33,2.82-2.15,5.17-5.87,5.17s-5.54-2.35-5.87-5.17Z"/>
      <path class="cls-5" d="M359.3,305.43h3.36v26.38h-3.36v-26.38Z"/>
      <path class="cls-5" d="M379.92,305.43h3.47l9.55,16.58,2.85,5.46h.16c-.17-2.66-.43-5.63-.43-8.39v-13.65h3.19v26.38h-3.47l-9.55-16.6-2.85-5.45h-.16c.17,2.67.43,5.48.43,8.24v13.8h-3.19v-26.38Z"/>
      <path class="cls-5" d="M415.96,305.43h3.36v26.38h-3.36v-26.38Z"/>
      <path class="cls-5" d="M434.76,329.81l13.89-21.54h-12.64v-2.84h16.79v2l-13.89,21.54h14.02v2.84h-18.17v-2Z"/>
    </g>
    <g>
      <path class="cls-3" d="M200.93,0h51.21l20.24,56.81c-2.9,2.95-6.79,6.54-11.71,10.2-5.74,4.27-10.48,6.86-19.25,11.64-4.1,2.24-8.3,4.51-14.15,7.26-8.2,3.84-13.1,6.14-20.26,7.97-4,1.03-6.15,1.62-6.49,1.7-1.15.27,13.49.16,22.17-.52,6.41-.5,14.05-1.13,24.11-2.98,5.4-1,11.76-2.19,19.96-4.8,3.91-1.24,11.61-4.42,15.26-6,.3-.13.71-.31,2-.88,3.44-1.53,6.99-3.78,8.55-4.8.65-.43,1.31-.84,1.97-1.24,4.95-2.97,5.32-3.06,6.88-3.99,1.06-.64-7.67,13.44-20.86,23.18-13.21,9.75-26.3,13.17-35.42,15.46-7.35,1.84-14.64,2.98-29.04,3.9-13.7.87-32.82,1.48-56.2.27L200.93,0Z"/>
      <path class="cls-1" d="M191.21,171.53c1.55-.12,3.63-.29,6.09-.54,5.97-.61,10.43-1.3,13.06-1.71,9.95-1.55,15.91-2.51,22.69-4.39,5.96-1.65,14.21-4.48,23.66-9.57l15.5,43.37h52.73l-34.58-92.59c-3.94,6.15-10.72,15.08-21.52,22.9-11.64,8.43-22.45,11.58-33.17,14.61-15.51,4.38-27.57,5.13-41.46,5.92-12.12.69-28.57.91-48.17-.99l-18.05,50.15h52.94l10.27-27.15Z"/>
      <path class="cls-2" d="M283.25,80.75c-2.97,1.47-6.94,3.38-11.66,5.24-10.89,4.3-19.83,5.61-22.25,6.15-12.4,2.75-27.23,3.24-29.82,3.31-.78.02-3.01.18-11,.52-5.87.25-10.02-.25-7.55-.63,2.88-.45,30.37-7.18,62.07-31.06,3.41-2.57,6.34-4.82,9.34-7.47l10.86,23.94Z"/>
      <path class="cls-4" d="M167.3,272.73h-14.88l-1.51,4.82c-.82,2.61-3.24,4.39-5.98,4.39h-5.2l12.94-37.12c.88-2.52,3.25-4.21,5.92-4.21h7l14.41,41.33h-5.2c-2.74,0-5.16-1.78-5.98-4.39l-1.51-4.82ZM154.66,265.53h10.39l-5.2-16.71-5.2,16.71Z"/>
      <path class="cls-4" d="M197.93,240.61h2.94v31.54c0,1.43,1.16,2.58,2.58,2.58h11.57c3.46,0,6.27,2.81,6.27,6.27v.93h-23.37c-3.46,0-6.27-2.81-6.27-6.27v-28.78c0-3.46,2.81-6.27,6.27-6.27Z"/>
      <path class="cls-4" d="M247.77,257.2l8.26-13.58c1.14-1.87,3.17-3.01,5.36-3.01h6.45l-15.47,25.15v9.9c0,3.46-2.81,6.27-6.27,6.27h-2.94v-16.18l-15.47-25.15h6.45c2.19,0,4.22,1.14,5.36,3.01l8.26,13.58Z"/>
      <path class="cls-4" d="M297.63,272.73h-14.88l-1.51,4.82c-.82,2.61-3.24,4.39-5.98,4.39h-5.2l12.94-37.12c.88-2.52,3.25-4.21,5.92-4.21h7l14.41,41.33h-5.2c-2.74,0-5.16-1.78-5.98-4.39l-1.51-4.82ZM285,265.53h10.39l-5.2-16.71-5.2,16.71Z"/>
    </g>
  </g>
</svg>