<?xml version="1.0" encoding="UTF-8"?>
<svg id="katman_2" data-name="katman 2" xmlns="http://www.w3.org/2000/svg" viewBox="0 0 3000 3000">
  <defs>
    <style>
      .cls-1 {
        fill: #19a3dc;
      }

      .cls-2 {
        fill: #f5fcfd;
      }
    </style>
  </defs>
  <g id="katman_1" data-name="katman 1">
    <rect class="cls-1" width="3000" height="3000"/>
    <path class="cls-2" d="M1464.79,676.16c406.55-5.96,666.38,442.06,455.87,792.44-192.82,320.94-653.62,341.66-873.25,37.65-248.39-343.81-4.27-823.91,417.38-830.09ZM1513.32,833.39c-1.55,10.87,0,27.95,0,39.73,0,.3,2.52,5.5,3.13,5.22,29.09-37.37,72.09-72.75,121.39-46.09,41.91,22.66,36.42,88.36-7.8,99.03-46.35,11.19-56.43-27.28-26.82-55.02-23.49,54.6,52.82,60.66,48.14,5.24-1.54-18.19-17.05-31.89-34.7-34.32-33.76-4.64-68.48,25.22-86.21,51.42-51.02,75.39-17.1,170.46,38.27,232.77,3.59,4.04,18.66,20.11,21.95,21.96,1.49.84,2.12,1.47,4.2,1,2.84-3.14-13.56-44.29-15.66-52.27-7.27-27.56-12.49-59.71-7.3-87.79l5.13,31.42c9.68,35.04,21.44,72.89,42.92,102.37,17.42-75.31,29.23-192.47,116.66-218.95,32.55-9.86,68.75,14.49,71.59,48.56,3.96,47.47-67.45,67.05-75.3,15.68,9.37,2.45,12.88,13.07,22.92,15.72,28.24,7.47,43.42-33.05,24.21-53.47-20.04-21.3-51.71-5.13-70.17,9.48-22.35,17.69-37.36,42.54-48.44,68.65-6.21,14.64-12.93,32.11-13.23,47.4,7.85-5.56,15.63-13.23,23.99-17.83,4.82-2.65,33.17-13.52,36.66-13.52h30.32l-29.7,6.89c-20.13,10.08-38.92,23.27-53.61,40.45,36.97,83.38,105.58,171.34,207.69,161.7,46.18-4.36,70.01-45,65.99-88.91-5.89-64.3-113.19-53.41-102.56,11.57-4.77.9-3.34-.28-4.66-2.67-12.07-21.68-1.11-54.94,21.41-65.27,32.94-15.1,79.05,1,98.75,30.88l14.13,28.7c-12.49-239.48-201.62-435.05-440.15-457.87-95.2-9.11-195,12.53-278.45,58.17-48.28,26.41-90.82,61.68-128.23,101.78,9.45.87,18.73-4.79,28.22-4.79,56.78-.01,60.3,88,4.65,76.42-4.63-.96-11.93-6.19-15.58-9.35-1.05-.91-5.8-1.49-2.64-4.79.49-.51,8.82,4.11,13.54,4.18,25.91.37,39.71-25.54,15.1-40.15-23.25-13.81-54.76-.83-57.94,26.57-4.86,41.89,20.5,63.51,61.11,59.01,6.63-.73,39.37-8.6,41.01-13.35,3.16-9.17,3.11-23.31,7.08-34.74,5.61-16.12,18.73-37.01,33.14-46.33,5.29-3.42,22.06-9.05,23.84-11.7,2.95-4.4,6.83-24.4,9.97-31.85,6.87-16.28,20.5-36.21,34-47.55,2.35-1.97,3.4-5.07,7.32-4.16l-20.76,28.79c-5.36,11.95-5.94,48.64,3.06,58.93,3.46,3.95,14.12,7,19.84,11.52,34.74,27.51,33.65,96.93-23.61,86.33-14.07-2.6-25.86-17.36-28.69-30.87,32.59,38.55,80.78,4.63,48.07-36.59-18.95-23.88-57.2-20.54-76.34,1.03-30.07,33.86-18.1,93.44,2.28,129.48,28.56,50.51,84.32,83.04,138.87,98.43l-24.72-30.66c-24.31-33.58-41.01-84.8-8.77-118.87,35.99-38.04,119.96-2.79,93.23,49.31-7.17,13.98-36.04,28.47-45.07,11.36,49.3,4.5,48.77-60.24,3.19-61.78-49.59-1.67-62.25,59.54-39.16,95.65,25.83,40.39,72.68,49.14,109.41,72.5,53.47,34.01,43.32,93.5,8.09,137.2,4.09.87,5.62-.93,8.47-3.01,23.81-17.46,50.75-61.35,65.79-86.92,1.59-2.71-.37-5.27,5.19-4.12-8,49.61-40.87,89.05-75.27,123.33,5.71.03,14.64-3.44,19.41-6.17,3.25-1.86,12.77-8.17,16.85-10.86,39.32-25.93,70.4-63.12,91.03-105.31-70.05-54.07-135.74-133.35-127.27-227.82.79-8.79,5.79-19.92,6.05-27.4.96-27.23-25.16-102.37-42.85-124.05-42.3-51.85-91.76,26.13-66.12,68.21,8.9,14.61,28.35,14.61,39.21,2.81,4.76-5.17,2.95-12.84,9.29-12.65,11.03,46.31-46.43,48.22-65.61,14.4-43.42-76.59,72.55-147.59,118.78-72.77l15.83,31.18c5.09-32.45,26.16-61.83,58.57-71.05-15,12.47-32.67,31.02-35.55,51.2ZM1251.94,1397.91c-1.09-10.24.79-21.97,0-32.41-47.54,28.47-102.13,66.35-151.69,18.91-64.12-61.37,25.09-181.81,92.53-157.34,35.13,12.75,42.77,78.9-1.48,79.86,15.76-16.08,14.48-51.64-10.3-57.63-54.91-13.27-114.28,81.03-55.98,112.43,32.26,17.37,70.11,12.06,99.56-7.91,9.06-6.14,43.3-37.49,45.83-46.31,1.39-4.85-2.65-25.12-1.52-34.83,2.82-24.09,20.6-49,46.79-49.5,23.53-.45,53.07,20.75,47,46.76-.37,1.6-3.47,1.62-3.96,3.06-2.55,7.43-2.57,16.92-10.58,21.41,21.98-57.92-63.62-78.04-53.84-5.76,4.35,32.13,40.06,55.65,68.54,65.27,3.94,1.33,16.83,5.69,19.78,5.41,5.09-.48,13.16-16.14,16.91-20.83,39.66-49.63,99.78-92.03,37.53-152.88-16.18-15.82-29.97-9.59-50.23-12.5-20.72-2.97-40.92-7.82-60.7-14.58-7-2.39-24.82-12.26-29.4-12.56-6.77-.45-38.97,23.64-48.35,28.83-51.5,28.48-125.94,49.08-183.08,27.1-93.41-35.94-16.86-158.6,48.58-134.3,21.77,8.08,33.36,32.13,19.27,52.61-1.83,2.67-2.32,5.74-6.66,4.81,4.67-16.35,6.63-27.59-8.51-38.53-52.13-37.69-98.57,64.4-42.18,94.45,55.33,29.49,149.33-3.44,197.04-38.14-45.53-11.11-84.95-33.54-109.97-74.01-1.1-1.78-5.25-4.52-1.89-6.47,10.88,14.04,25.76,22.56,38.27,34.9l50.6,17.34c-30.58-32.5-52.91-68.78-54.47-114.85-63.34,8.08-133.67-16.52-108.64-94.19l-18.86,23.97c-79.44,119.08-102.37,265.95-63.23,404.14,51.11,180.43,210.86,321.96,397.84,345.46-16.97-50.84-64.22-86.52-74.34-139.96-7.38-38.96,2.12-76.58,17.52-112.33,7.26-16.85,17.55-32.27,25.44-48.76-24.68-1.91-49.33-8.34-68.82-24.23-6.18-5.04-9.13-10.57-13.91-15.36-1.72-1.73-1.83-3-5.07-2.23-13.39,36.87-19.02,74.07-10.49,112.89l-11.41-20.97c-3.59-8.98-8.47-20.75-9.48-30.25ZM1601.14,1254.69h38.68c6.56,0,27.07,5.2,34.49,7.33,105.26,30.22,53.64,169.8-38.55,145.18-54.54-14.57-45.03-104.81,3.52-97.7,24.01,3.52,34.04,27.57,17.25,45.54-2-7.74.87-18.77-9.28-22.06-37.5-12.17-44.95,34.98-16.24,51.78,54.03,31.62,124.65-55.99,55.16-92.79-27.38-14.51-62.91-12.15-91.78-3.23-26.51,8.19-30.84,19.11-50.83,34.9-22.2,17.53-47.3,31.05-73.66,41.34-11.58,4.52-35.85,9.46-44.34,14.21-6.39,3.57-4.99,33.38-4.35,41.81,5.16,68.54,52.71,155.96,90.39,212.79,4.85,7.31,25.81,39.72,29.94,43.24,2.29,1.95,3.09,2.21,6.13,2.23,8.16.05,30.77-5.98,40.13-8.21,173.81-41.31,315.59-185.25,356.09-359,4.91-21.05,11.85-54.15,10.6-75.16-.14-2.35,1.39-5.73-2.06-5.17-10.35,31.01-45.06,49.6-76.38,52.22-97.48,8.16-171.81-48.1-218.07-128.96-6.71-11.73-11.09-25.45-19.21-36.18-4.98,47.09-17.67,93.15-37.66,135.9ZM1956.59,1229.59c1.5-2.94-1.32-5.58-2.05-4.16-1.5,2.94,1.32,5.58,2.05,4.16Z"/>
    <path class="cls-2" d="M1174.56,1915.39c.62-3.3-.79-18.03.01-18.83,1.05-1.05,28.49-2.09,27.2,5.23-2.31,48.02,3.06,98.77.08,146.45-1.99,31.93-9.63,60.54-42.88,72.12-36.23,12.62-91.91.2-91.04-46.08,6.01,1.09,20.84-1.98,25.19.96,1.88,1.27,3.4,9.66,7.12,13.79,16.64,18.46,56.36,11.91,67.68-9.91,5.52-10.63,7.03-24.43,6.64-36.2-77.45,61.96-131.3-27.54-104.06-103.02,16.61-46.01,70.51-66.94,104.06-24.52ZM1121.7,1924.2c-44.23,9.96-37.88,120.34,12.07,116.69,55.27-4.04,56.35-132.1-12.07-116.69Z"/>
    <path class="cls-2" d="M1440.13,1840.12v89.91h112.91v-89.91h29.27v215.35h-29.27v-100.36h-109.78c-.22,0-3.14,2.91-3.14,3.14v97.22h-29.27v-215.35h29.27Z"/>
    <path class="cls-2" d="M1365.15,2036.37c2.65,1.65,13.31-.75,14.35.28.74.73.43,19.91-.24,20.7-.53.62-11.18,2.4-13.34,2.45-15.45.38-28.29-6.38-28.27-23.14-19.31,18.8-46.07,30.82-73.14,21.93-30.46-10-43.95-45.85-24.12-72.17,11-14.6,33.1-20.29,50.51-22.68,20.23-2.77,50.98,4.6,44.2-28.02-4.74-22.78-45.57-22.91-60.88-11.65-10.17,7.49-8.72,21.51-9.82,22.59-1.16,1.14-20.89-.62-25.01.09-1.4-23.1,17.88-43.7,39.31-49.56,27.68-7.56,80.05-2.06,84.07,33.87,1.62,14.43-3.01,101.96,2.38,105.3ZM1335.58,1976.03c-20.54,12.05-75.48,5.85-75.44,38.68.05,45.09,75.44,17.43,75.44-4.18v-34.5Z"/>
    <path class="cls-2" d="M2245.17,1986.48h-115.01c-7.76,54.31,68.61,71.61,84.92,20.78,5.49.17,10.99.2,16.49.12,3.48-.05,11.8-4.63,10.69,2.26-3.82,23.6-26.09,44.25-48.9,49.45-117.64,26.8-121.29-161.27-22.52-166.77,54.86-3.05,74.01,47.3,74.33,94.17ZM2215.9,1965.57c2.64-64.97-85.2-61.42-85.73,0h85.73Z"/>
    <path class="cls-2" d="M1740.07,1916.54c44.52,46.83,19.83,147.62-54.15,145.24-93.05-3-94.17-162.4-2.27-167.36,22.63-1.22,40.91,5.82,56.42,22.13ZM1680.05,1918c-51.26,7.71-54.15,128.48,18.14,118.48,49.74-6.88,52.24-129.06-18.14-118.48Z"/>
    <path class="cls-2" d="M958.7,1895.02c113.33-15.53,111.01,177.49,4.22,166.13-87.82-9.34-85.78-154.96-4.22-166.13ZM962.88,1918.04c-51.74,7.22-47.54,110.21-4.24,118.13,77.38,14.16,76.17-128.18,4.24-118.13Z"/>
    <path class="cls-2" d="M2073.72,1944.66c-5.78-1.05-21.25,1.92-25.23-.91-2.43-1.74-1.93-7.98-3.58-11.05-11.4-21.23-64.22-20.87-65.37,6.83-.43,10.41,5.37,13.92,14.22,17.15,23.88,8.74,79.21,10.66,83.95,43.58,11.41,79.17-131.63,83.28-129.46,5.04,4.21.71,26.25-.99,27.18,0,.36.38-.03,7.3.99,10.5,9.75,30.78,72.05,26.88,74.39,1,1.56-17.24-6.68-18.66-20.56-23.44-34.62-11.91-82.86-7.73-75.53-60.01,7.75-55.28,122.36-52.08,119.01,11.31Z"/>
    <path class="cls-2" d="M723.97,1840.12c6.26,1.98,51.79,92.73,63.75,102.44,8.35-11.52,55.73-102.44,61.71-102.44h32.41l-81.55,132.77v82.59c-5.12-1-25.18,1.93-27.42-1.22-6.11-8.59,1.62-69.73-2.83-86.67l-78.48-127.47c8.35,1.61,25.46-2.2,32.41,0Z"/>
    <path class="cls-2" d="M1818.61,1896.58v120.22c0,1.17,6.04,13.84,7.47,15.53,9.77,11.52,23.21,9.58,35.75,4.69,51.29-19.96,20.71-98.42,31.92-139.53,4.29-1.54,25.22-2.3,25.22,2.22v155.77c-4.21-.71-26.23.97-27.19.01-1.12-1.12,1.7-12.28-1.02-14.64-23.1,24.74-72.94,34.4-91.89-.14-1.11-2.03-5.35-10.26-5.35-11.37v-132.77h25.09Z"/>
    <path class="cls-2" d="M1726.6,512.45c-2.91-.74-3.96-2.03-4.18-2.09l4.18,2.09Z"/>
    <path class="cls-1" d="M1513.32,833.39c2.88-20.18,20.55-38.73,35.55-51.2-32.41,9.22-53.48,38.6-58.57,71.05l-15.83-31.18c-46.23-74.82-162.2-3.82-118.78,72.77,19.17,33.82,76.64,31.91,65.61-14.4-6.34-.19-4.54,7.48-9.29,12.65-10.87,11.8-30.31,11.8-39.21-2.81-25.64-42.08,23.82-120.06,66.12-68.21,17.69,21.68,43.82,96.82,42.85,124.05-.26,7.48-5.26,18.61-6.05,27.4-8.48,94.46,57.22,173.74,127.27,227.82-20.63,42.19-51.71,79.38-91.03,105.31-4.08,2.69-13.6,8.99-16.85,10.86-4.77,2.74-13.7,6.2-19.41,6.17,34.39-34.28,67.27-73.72,75.27-123.33-5.56-1.15-3.6,1.41-5.19,4.12-15.05,25.58-41.99,69.47-65.79,86.92-2.84,2.08-4.38,3.88-8.47,3.01,35.23-43.69,45.38-103.19-8.09-137.2-36.73-23.36-83.58-32.11-109.41-72.5-23.09-36.11-10.43-97.32,39.16-95.65,45.58,1.54,46.11,66.28-3.19,61.78,9.03,17.12,37.9,2.62,45.07-11.36,26.73-52.1-57.23-87.35-93.23-49.31-32.24,34.07-15.54,85.29,8.77,118.87l24.72,30.66c-54.55-15.39-110.31-47.92-138.87-98.43-20.38-36.04-32.35-95.62-2.28-129.48,19.15-21.56,57.39-24.91,76.34-1.03,32.71,41.22-15.48,75.14-48.07,36.59,2.83,13.51,14.62,28.27,28.69,30.87,57.26,10.6,58.35-58.82,23.61-86.33-5.72-4.53-16.38-7.57-19.84-11.52-9-10.29-8.42-46.98-3.06-58.93l20.76-28.79c-3.92-.92-4.98,2.18-7.32,4.16-13.5,11.34-27.13,31.27-34,47.55-3.14,7.45-7.02,27.45-9.97,31.85-1.78,2.65-18.55,8.27-23.84,11.7-14.4,9.31-27.53,30.21-33.14,46.33-3.98,11.43-3.92,25.57-7.08,34.74-1.64,4.76-34.38,12.62-41.01,13.35-40.61,4.5-65.97-17.12-61.11-59.01,3.18-27.4,34.69-40.38,57.94-26.57,24.6,14.62,10.81,40.52-15.1,40.15-4.72-.07-13.05-4.69-13.54-4.18-3.15,3.3,1.59,3.88,2.64,4.79,3.65,3.16,10.95,8.39,15.58,9.35,55.65,11.58,52.13-76.44-4.65-76.42-9.48,0-18.77,5.66-28.22,4.79,37.41-40.1,79.94-75.37,128.23-101.78,83.45-45.64,183.25-67.28,278.45-58.17,238.52,22.82,427.66,218.38,440.15,457.87l-14.13-28.7c-19.71-29.88-65.81-45.98-98.75-30.88-22.52,10.32-33.48,43.59-21.41,65.27,1.33,2.38-.11,3.57,4.66,2.67-10.64-64.99,96.67-75.87,102.56-11.57,4.02,43.91-19.81,84.55-65.99,88.91-102.11,9.64-170.72-78.32-207.69-161.7,14.7-17.18,33.48-30.37,53.61-40.45l29.7-6.89h-30.32c-3.5,0-31.84,10.87-36.66,13.52-8.36,4.6-16.14,12.27-23.99,17.83.3-15.3,7.03-32.76,13.23-47.4,11.07-26.11,26.09-50.97,48.44-68.65,18.46-14.61,50.13-30.78,70.17-9.48,19.21,20.42,4.02,60.93-24.21,53.47-10.04-2.65-13.56-13.28-22.92-15.72,7.85,51.37,79.26,31.79,75.3-15.68-2.85-34.07-39.04-58.42-71.59-48.56-87.42,26.48-99.23,143.64-116.66,218.95-21.47-29.49-33.23-67.34-42.92-102.37l-5.13-31.42c-5.19,28.08.03,60.23,7.3,87.79,2.1,7.98,18.51,49.13,15.66,52.27-2.09.47-2.72-.17-4.2-1-3.29-1.85-18.37-17.92-21.95-21.96-55.37-62.31-89.29-157.38-38.27-232.77,17.73-26.2,52.45-56.07,86.21-51.42,17.65,2.43,33.16,16.13,34.7,34.32,4.69,55.43-71.62,49.36-48.14-5.24-29.61,27.74-19.53,66.21,26.82,55.02,44.22-10.67,49.71-76.37,7.8-99.03-49.3-26.66-92.3,8.72-121.39,46.09-.6.28-3.13-4.91-3.13-5.22,0-11.77-1.55-28.85,0-39.73ZM1444.34,786.35c27.53-7.88,28.52-37.26,20.86-60.63-20.25,10.32-47.3,35.51-26.1,58.53,2.21-6,1.19-16.76,7.29-20.89l-2.05,22.99ZM1532.16,782.17c20.57-18.58-1.16-40.84-17.8-52.23-9.81,16.43-9.47,47.76,13.58,52.22,1.35-6.33-1.31-12.29-1.83-18.03-.21-2.34-1.92-7.51,1.82-7.04l4.23,25.08ZM1364.88,792.62c7.06-3.71,4.83-17.86,1.8-23.77-2.92-5.71-27.2-24.15-31.09-20.12-2.12,17.64.84,50.41,25.1,45.97-.41-5.4-3.04-10.24-4.59-15.28-.57-1.87-3.98-5.89.37-5.59l8.42,18.79ZM1652.69,816.99c13.44-12.92,9.23-37.02,6.97-53.64-13.61,6.77-33.95,23.05-35.01,39.2-.25,3.73,3.78,17.6,5.8,19.33,6.54,5.61,2.04-15.77,7.29-16.7l-1.05,16.7c5.96.78,11.66-.72,16-4.89ZM1594.84,813.52c9.87-21.82-14.67-40.09-33.42-43.89-1.4,20.23,2.33,46.7,27.17,48.06l-3.15-16.7,9.39,12.53ZM1233.13,847c4.75-4.55,11.92,15.38,13,17.29,5.28,9.35,8.13-9.62,7.82-13.94-1.79-25.13-32.53-35.75-52.17-43.1-2.2,28.05,6.42,62.75,39.7,64.8,1.52-9.55-4.66-16.97-8.35-25.06ZM1408.77,811.46c-27.93,2.66-25.09,31.98-18.8,52.24,18.28-6.4,36.99-32.53,21.93-50.13l-11.48,14.59c-1.02-7.32,4.9-11.41,8.34-16.71ZM1615.79,903.43c15.51-1.66,34.7-35.42,14.69-40.98-17.96-4.99-18.74,30.67-14.69,40.98ZM1799.76,863.72c-22.41,9.12-47.32,35.84-26.1,58.52,2.46-5.11,0-22.35,7.27-17.8l-2.04,17.81c27.31-4.17,27.18-37.91,20.88-58.53ZM1695.24,933.75c-.73-10,.53-20.3,0-30.32l6.3,35.54c14.36-1.2,16.13-20.15,14.1-31.91-.77-4.47-12.51-32.72-18.28-28.71-.92.64-9.59,17.41-10.54,19.8-6.57,16.58-7.36,34.15,10.48,42.91,1.27-3.1-1.96-5.85-2.07-7.32ZM1557.23,904.48c1.28,9.24-.93,20.76,0,30.32l-8.39-39.72c-14.4,8.83-16.69,20.2-14.43,36.4.8,5.71,14.52,36.88,20.69,32.58,13.62-23.78,30.42-54.25-2.03-71.07-1.06,4.22,3.73,8.4,4.16,11.5ZM1841.6,922.28c-14.99-6.17-41.64-13.72-45.99,8.33l10.43-2.06-8.31,7.3c14.56,13.23,34.82-.1,43.86-13.57ZM1374.56,935.55c-2.71-2.79-25.07-17.21-26.41-15.39-1.86,18.12.08,49.74,25.1,47.01l-6.28-21.92c6.07,5.25,9.61,15.3,10.46,22.99,3-.53,5.61-9.87,5.87-12.04.88-7.45-3.73-15.49-8.73-20.65ZM1467.33,924.34c-28.51.2-60.78,11.52-54.35,45.99l19.87-22.97,3.09,1.01-16.71,24.03c28.23,9.84,47.4-23.98,48.09-48.06ZM1642.93,1024.7c.45-.43,3.88-10.13,4.09-11.61,4.71-32.87-23.13-45.38-47.95-57.37-3.06,15.34-1.55,39.35,6.55,53.01,3.17,5.35,23.82,23.06,28.98,18.07,4.26-4.11-9.83-27.2-7.33-33.44,8.87,8.74,9.62,16.92,11.58,28.18.47,2.71.62,6.47,4.08,3.16ZM1728.68,1030.97c-1.9-21.38-12.35-44.56-37.61-37.61,2.17,3.58,10.68,6.61,13.69,9.16,3.54,3,6.46,6.98,9.26,10.7l-25.03-15.7c-2.87,24.08,20.47,30.59,39.69,33.45ZM1523.78,1033.05c18.98,4.35,32.39-19.45,32.65-35.39.13-7.82-18.2-.16-23,2.21-13.56,6.69-17.33,16.25-15.92,31.11l9.41-10.41-3.15,12.49ZM1308.39,995.44c-28.26,6.47-61.55,24.01-50.15,58.54l19.86-27.14-11.51,31.31c33.53.83,43.08-35.19,41.8-62.71ZM1389.94,1074.87c-1.01-19.09-13.36-41.85-35.53-37.61l14.58,13.6-18.77-7.33c-1.94,23.04,20.56,30.35,39.71,31.34ZM1828.44,1060.87c-2.27-2.27-27.3-16.33-31.34-17.8-2.61-.95-4.8-2.26-7.76-1.63-1.51,25.94,1.01,63.11,32.52,68.89,3.37.62,5.48,1.44,5.02-2.91-1.04-9.8-7.18-18.61-8.26-28.35,9.96,1.9,10.62,27.33,12.55,29.27,3.05,3.08,3.62-.87,4.65-2.68,4.11-7.25,4.86-18.61,2.71-26.66-.36-1.34-9.35-17.4-10.08-18.13ZM1910.6,1041.44c-15.48,4.99-36,23.42-35.61,40.66.11,4.75,5.73,26.56,8.4,14.74,1.17-5.17.37-11.68,5.28-15.68,2.32,5.85,1.5,13.22-1.06,18.79,30.38-3.35,26.16-35.88,22.99-58.51ZM1613.69,1068.63c4.51-4.57,14.83,29.42,14.82,5.2,0-14.58-18.46-27.17-31.54-30.3-1.27,18.4.32,42.16,22.98,43.89l-6.26-18.79ZM1438.05,1129.24c28.18-1.65,30.97-35.86,27.15-57.47-2.07-11.72-20.19,3.86-25.09,8.31-16.37,14.87-21.03,28.64-10.41,49.14,2.7.61,2.51-2.16,3.1-4.15,2.24-7.49,1.63-18.52,9.4-23.02l-4.15,27.18ZM1743.32,1104.14c.17-14.87-17.92-46.54-35.57-36.61-6.22,3.5,10.39,7.22,10.45,10.51-12.58-6.2-21.34-7.84-12.96,8.8,6.47,12.85,24.53,18.07,38.08,17.3ZM1749.59,1129.23c-22.28,4.81-48.28,34.89-28.21,56.45l7.33-25.06c3.89-.45,1.73,4.4,1.47,6.69-.35,3.16-4.3,19.71-3.58,20.46,28.56-6.5,27.46-34.92,22.98-58.54ZM1906.43,1150.17c-40.31-8.59-52.13,34.99-52.26,66.88,26.95-5.19,62.36-20.73,58.64-53.41-2.24-19.63-22.04,14.76-31.46,10.57l25.08-24.03ZM1540.48,1204.51c10.03-24.04-11-43.93-33.42-46-.91,20.84,2.29,45.27,27.16,48.09v-14.61s6.26,12.52,6.26,12.52ZM1822.8,1244.23c3.78,4.46,9.55-11.49,9.96-14.09,3.96-25.18-25.01-45.95-45.5-54.89-4.37,29.12-5.58,67.55,31.33,73.17l-9.41-39.7c7.03,10.29,14.17,22.68,13.61,35.52Z"/>
    <path class="cls-1" d="M1251.94,1397.91c1.01,9.5,5.89,21.27,9.48,30.25l11.41,20.97c-8.53-38.82-2.9-76.02,10.49-112.89,3.24-.76,3.35.51,5.07,2.23,4.78,4.79,7.73,10.33,13.91,15.36,19.49,15.89,44.14,22.32,68.82,24.23-7.9,16.49-18.18,31.91-25.44,48.76-15.4,35.74-24.89,73.37-17.52,112.33,10.12,53.43,57.37,89.12,74.34,139.96-186.98-23.5-346.73-165.03-397.84-345.46-39.15-138.19-16.21-285.06,63.23-404.14l18.86-23.97c-25.03,77.68,45.3,102.27,108.64,94.19,1.57,46.07,23.9,82.35,54.47,114.85l-50.6-17.34c-12.52-12.35-27.39-20.86-38.27-34.9-3.36,1.95.79,4.69,1.89,6.47,25.03,40.46,64.44,62.9,109.97,74.01-47.71,34.7-141.71,67.63-197.04,38.14-56.39-30.05-9.95-132.14,42.18-94.45,15.14,10.94,13.17,22.18,8.51,38.53,4.34.92,4.83-2.15,6.66-4.81,14.09-20.49,2.5-44.53-19.27-52.61-65.44-24.3-141.99,98.36-48.58,134.3,57.14,21.98,131.58,1.38,183.08-27.1,9.39-5.19,41.59-29.28,48.35-28.83,4.58.31,22.4,10.17,29.4,12.56,19.78,6.76,39.98,11.6,60.7,14.58,20.26,2.91,34.05-3.32,50.23,12.5,62.25,60.85,2.13,103.24-37.53,152.88-3.75,4.69-11.82,20.34-16.91,20.83-2.94.28-15.84-4.08-19.78-5.41-28.48-9.61-64.19-33.13-68.54-65.27-9.78-72.28,75.82-52.16,53.84,5.76,8-4.49,8.03-13.98,10.58-21.41.49-1.44,3.59-1.46,3.96-3.06,6.07-26.01-23.48-47.21-47-46.76-26.19.5-43.97,25.42-46.79,49.5-1.14,9.71,2.91,29.98,1.52,34.83-2.53,8.82-36.77,40.17-45.83,46.31-29.45,19.97-67.3,25.28-99.56,7.91-58.3-31.39,1.07-125.7,55.98-112.43,24.78,5.99,26.06,41.55,10.3,57.63,44.25-.96,36.6-67.12,1.48-79.86-67.44-24.47-156.64,95.96-92.53,157.34,49.56,47.44,104.15,9.56,151.69-18.91.79,10.43-1.09,22.16,0,32.41ZM1093.03,987.09c-46.79-8.27-61.08,37.64-60.63,75.25,34.69-5,75.21-27.93,64.79-69-6.43,3.42-12.69,7.44-18.63,11.67-4.41,3.14-8.62,11.82-14.8,8.2l29.26-26.12ZM1147.39,1181.49c33.15-1.07,38.11-37.35,33.43-63.72-1.8-10.16-16.32.87-21.93,5.2-19.02,14.68-32.9,36.84-14.63,58.53,1.38-10.05,3.45-20.33,8.34-29.36,1.58-2.92-.18-5.15,5.23-4.07l-10.45,33.42ZM1293.79,1219.14c3.72-.76,3.98-4.16,4.27-7.28,1.93-20.21-16.41-27.26-31.46-34.53-1.21,18.04-.83,44.12,22.97,43.89l-1.05-12.52,5.26,10.44ZM1412.95,1196.16c-25.23-1.73-55.9,9.74-52.26,39.7l13.59-12.52-7.32,16.71c28.27,5.03,42.24-19.5,45.99-43.89ZM1055.39,1210.81c-4.4-3.22-20.47,9.23-23.81,12.76-22.96,24.22-7.91,66.03,6.04,91.72,27.88-24.73,59.1-67.13,25.09-100.28-4.47,3.63-6.78,8.8-9.11,13.86-1.05,2.28-8.27,28.7-12.84,23.73-1.51-1.64,10.32-37.19,14.63-41.78ZM1392.04,1281.87c-21.38,6.38-54.62,30.48-40.22,55.87,5,8.81,4.42-2.86,6.3-7.18s4.54-10.89,8.8-13.14l-6.24,25.08c8.19,1.29,17.51-3.38,22.68-9.7,2.57-3.14,8.67-17.45,8.67-20.6v-30.32ZM1174.56,1355.05c-2.15-28.17-15.37-64.34-50.15-58.53,2.14,13.54,15,21.32,19.88,33.4-10.41-6.59-20.51-17.48-24.09-29.22-5.28,1.6-4.46,8.72-4.27,13.63,1.09,28.06,36.6,35.93,58.64,40.72ZM1316.76,1373.89c-37.74,9.99-25.12,48.49-14.61,75.24,22.73-16.73,43.32-48.08,19.84-73.13l-13.57,25.04c0-9.6,4.29-18.7,8.34-27.15ZM1245.67,1413.57c-.3-3.11-3.1-3.25-5.34-4.06-24.47-8.93-41.58,22.17-46.92,41.71,23.28,1.27,55.98-3.48,54.33-33.44-1.06-1.41-17.55,7.5-20.04,8.19-3.93,1.1-3.95-2.94-2.93-3.98,1.23-1.24,17.57-7.83,20.9-8.42ZM1153.67,1417.8c-46.95,11.95-33.16,60.95-18.79,94.06,2.75,1.99,16.28-12.86,18.73-15.74,12.73-14.96,24.27-35.71,18.28-55.8-1.22-4.08-11.5-25.05-16.13-16.97l-14.62,36.23c-1.57-15.13,5.87-28.85,12.52-41.79Z"/>
    <path class="cls-1" d="M1601.14,1254.69c19.99-42.75,32.68-88.82,37.66-135.9,8.11,10.73,12.49,24.45,19.21,36.18,46.26,80.86,120.59,137.12,218.07,128.96,31.32-2.62,66.03-21.22,76.38-52.22,3.45-.56,1.92,2.82,2.06,5.17,1.25,21.01-5.69,54.11-10.6,75.16-40.5,173.75-182.28,317.69-356.09,359-9.36,2.22-31.97,8.26-40.13,8.21-3.04-.02-3.84-.28-6.13-2.23-4.12-3.51-25.09-35.92-29.94-43.24-37.67-56.83-85.23-144.25-90.39-212.79-.63-8.43-2.04-38.24,4.35-41.81,8.49-4.74,32.76-9.69,44.34-14.21,26.36-10.29,51.46-23.81,73.66-41.34,19.99-15.79,24.32-26.71,50.83-34.9,28.87-8.92,64.39-11.27,91.78,3.23,69.48,36.81-1.13,124.41-55.16,92.79-28.71-16.8-21.26-63.95,16.24-51.78,10.14,3.29,7.28,14.32,9.28,22.06,16.78-17.97,6.76-42.02-17.25-45.54-48.55-7.11-58.06,83.13-3.52,97.7,92.19,24.62,143.81-114.96,38.55-145.18-7.42-2.13-27.93-7.33-34.49-7.33h-38.68ZM1661.78,1187.81c-27.43-3.14-32.7,32.04-27.17,52.25,20.97-3.32,46.64-28.23,32.4-50.14l-17.75,18.76c1.08-8.38,8.26-14.2,12.53-20.87ZM1795.6,1283.98c-37.86-6.7-48.93,30.79-52.25,60.62,28.49-5.08,64.28-16.22,58.52-52.25-7.33-2.54-32.05,22.32-33.42,20.9-2.78-2.88,11.58-11.13,11.39-14.64.94-2.55,19.7-11.26,15.77-14.62ZM1904.32,1340.42c5.2-20.33,1.33-49.33-25.08-48.07l2.13,4.15c-6.53-1.87-8.07,3.92-8.26,9.73-.53,16,17.99,28.95,31.21,34.19ZM1697.35,1361.32c18.59-16.87-2.84-39.48-19.9-48.04-9.83,12.05-5.57,47.2,12.51,48.12,7.5.38-.56-11.21,5.26-12.62l2.14,12.53ZM1726.63,1386.42c-13.22,24.62,6.79,46.14,28.16,56.45,10.41-20.55,8.37-58.42-21.91-58.53-1.82,1.38,14.56,16.9,9.42,20.88-5.07-6.48-7.75-14.88-15.67-18.8ZM1599.04,1388.53c-36.22-12.4-54.71,28.75-54.34,58.52,23.17-2.03,53.71-13.02,58.05-39.19.53-3.2,1.44-12.8-2.63-13.04-3.36-.2-28.16,18.12-31.39,22.94-2.02-5.81,10.51-11.22,13.55-17.82l16.77-11.42Z"/>
    <path class="cls-1" d="M1956.59,1229.59c-.73,1.42-3.55-1.22-2.05-4.16.73-1.42,3.55,1.22,2.05,4.16Z"/>
    <path class="cls-1" d="M1121.7,1924.2c68.42-15.41,67.34,112.66,12.07,116.69-49.95,3.65-56.3-106.73-12.07-116.69Z"/>
    <path class="cls-1" d="M1335.58,1976.03v34.5c0,21.62-75.4,49.27-75.44,4.18-.03-32.83,54.9-26.63,75.44-38.68Z"/>
    <path class="cls-1" d="M2215.9,1965.57h-85.73c.53-61.42,88.37-64.97,85.73,0Z"/>
    <path class="cls-1" d="M1680.05,1918c70.38-10.58,67.87,111.59,18.14,118.48-72.29,10.01-69.4-110.77-18.14-118.48Z"/>
    <path class="cls-1" d="M962.88,1918.04c71.93-10.04,73.15,132.29-4.24,118.13-43.31-7.92-47.51-110.91,4.24-118.13Z"/>
    <path class="cls-2" d="M1906.43,1150.17l-25.08,24.03c9.41,4.2,29.22-30.2,31.46-10.57,3.72,32.68-31.69,48.22-58.64,53.41.13-31.89,11.95-75.47,52.26-66.88Z"/>
    <path class="cls-2" d="M1828.44,1060.87c.73.73,9.73,16.79,10.08,18.13,2.16,8.05,1.4,19.41-2.71,26.66-1.03,1.81-1.6,5.75-4.65,2.68-1.93-1.94-2.59-27.37-12.55-29.27,1.08,9.74,7.22,18.55,8.26,28.35.46,4.35-1.65,3.53-5.02,2.91-31.52-5.78-34.03-42.95-32.52-68.89,2.96-.62,5.15.69,7.76,1.63,4.04,1.46,29.07,15.53,31.34,17.8Z"/>
    <path class="cls-2" d="M1642.93,1024.7c-3.46,3.31-3.61-.45-4.08-3.16-1.95-11.26-2.7-19.44-11.58-28.18-2.5,6.24,11.59,29.34,7.33,33.44-5.16,4.98-25.8-12.72-28.98-18.07-8.1-13.66-9.62-37.67-6.55-53.01,24.82,11.99,52.65,24.5,47.95,57.37-.21,1.48-3.64,11.19-4.09,11.61Z"/>
    <path class="cls-2" d="M1822.8,1244.23c.56-12.85-6.58-25.23-13.61-35.52l9.41,39.7c-36.91-5.61-35.71-44.05-31.33-73.17,20.49,8.94,49.46,29.71,45.5,54.89-.41,2.61-6.18,18.56-9.96,14.09Z"/>
    <path class="cls-2" d="M1233.13,847c3.7,8.09,9.87,15.5,8.35,25.06-33.28-2.06-41.9-36.75-39.7-64.8,19.65,7.35,50.38,17.97,52.17,43.1.31,4.32-2.54,23.29-7.82,13.94-1.08-1.92-8.25-21.85-13-17.29Z"/>
    <path class="cls-2" d="M1308.39,995.44c1.28,27.52-8.27,63.53-41.8,62.71l11.51-31.31-19.86,27.14c-11.39-34.53,21.9-52.07,50.15-58.54Z"/>
    <path class="cls-2" d="M1467.33,924.34c-.69,24.08-19.86,57.9-48.09,48.06l16.71-24.03-3.09-1.01-19.87,22.97c-6.43-34.47,25.84-45.79,54.35-45.99Z"/>
    <path class="cls-2" d="M1438.05,1129.24l4.15-27.18c-7.77,4.5-7.17,15.53-9.4,23.02-.59,1.98-.39,4.76-3.1,4.15-10.63-20.51-5.97-34.27,10.41-49.14,4.9-4.45,23.02-20.03,25.09-8.31,3.83,21.61,1.03,55.82-27.15,57.47ZM1444.3,1099.96l1.09-6.22c-3.19,2.13-5.2,6.59-1.09,6.22Z"/>
    <path class="cls-2" d="M1557.23,904.48c-.43-3.1-5.22-7.28-4.16-11.5,32.45,16.83,15.65,47.29,2.03,71.07-6.16,4.3-19.89-26.87-20.69-32.58-2.27-16.2.03-27.58,14.43-36.4l8.39,39.72c-.93-9.55,1.28-21.07,0-30.32Z"/>
    <path class="cls-2" d="M1910.6,1041.44c3.17,22.63,7.39,55.17-22.99,58.51,2.56-5.57,3.38-12.93,1.06-18.79-4.9,4-4.11,10.51-5.28,15.68-2.66,11.82-8.29-9.99-8.4-14.74-.4-17.24,20.13-35.68,35.61-40.66Z"/>
    <path class="cls-2" d="M1799.76,863.72c6.3,20.62,6.43,54.36-20.88,58.53l2.04-17.81c-7.26-4.55-4.81,12.69-7.27,17.8-21.22-22.69,3.69-49.41,26.1-58.52Z"/>
    <path class="cls-2" d="M1444.34,786.35l2.05-22.99c-6.1,4.12-5.08,14.89-7.29,20.89-21.2-23.02,5.85-48.21,26.1-58.53,7.66,23.37,6.66,52.74-20.86,60.63Z"/>
    <path class="cls-2" d="M1652.69,816.99c-4.34,4.17-10.04,5.66-16,4.89l1.05-16.7c-5.25.92-.75,22.31-7.29,16.7-2.02-1.73-6.04-15.6-5.8-19.33,1.06-16.15,21.4-32.42,35.01-39.2,2.26,16.62,6.47,40.72-6.97,53.64Z"/>
    <path class="cls-2" d="M1749.59,1129.23c4.48,23.63,5.58,52.04-22.98,58.54-.73-.76,3.22-17.3,3.58-20.46.26-2.29,2.42-7.14-1.47-6.69l-7.33,25.06c-20.08-21.56,5.93-51.64,28.21-56.45Z"/>
    <path class="cls-2" d="M1695.24,933.75c.11,1.46,3.34,4.22,2.07,7.32-17.84-8.76-17.06-26.33-10.48-42.91.95-2.39,9.62-19.16,10.54-19.8,5.76-4.02,17.51,24.24,18.28,28.71,2.03,11.76.25,30.71-14.1,31.91l-6.3-35.54c.53,10.01-.73,20.31,0,30.32Z"/>
    <path class="cls-2" d="M1540.48,1204.51l-6.27-12.52v14.61c-24.86-2.82-28.05-27.25-27.15-48.09,22.42,2.07,43.45,21.96,33.42,46Z"/>
    <path class="cls-2" d="M1408.77,811.46c-3.44,5.3-9.36,9.38-8.34,16.71l11.48-14.59c15.06,17.6-3.65,43.73-21.93,50.13-6.3-20.26-9.14-49.58,18.8-52.24ZM1400.38,834.43c1.5-2.94-1.32-5.58-2.05-4.16-1.5,2.94,1.32,5.58,2.05,4.16Z"/>
    <path class="cls-2" d="M1594.84,813.52l-9.39-12.53,3.15,16.7c-24.84-1.36-28.57-27.84-27.17-48.06,18.74,3.81,43.28,22.08,33.42,43.89ZM1581.28,792.62v2.09c1.36-.7,1.36-1.39,0-2.09ZM1583.37,796.8v2.09c1.36-.7,1.36-1.39,0-2.09Z"/>
    <path class="cls-2" d="M1374.56,935.55c5,5.15,9.61,13.2,8.73,20.65-.26,2.17-2.87,11.52-5.87,12.04-.85-7.68-4.38-17.74-10.46-22.99l6.28,21.92c-25.02,2.72-26.96-28.9-25.1-47.01,1.34-1.83,23.7,12.6,26.41,15.39Z"/>
    <path class="cls-2" d="M1532.16,782.17l-4.23-25.08c-3.74-.47-2.03,4.7-1.82,7.04.52,5.73,3.18,11.7,1.83,18.03-23.05-4.46-23.4-35.79-13.58-52.22,16.63,11.39,38.37,33.65,17.8,52.23Z"/>
    <path class="cls-2" d="M1364.88,792.62l-8.42-18.79c-4.34-.3-.94,3.72-.37,5.59,1.55,5.04,4.18,9.88,4.59,15.28-24.26,4.44-27.21-28.33-25.1-45.97,3.89-4.03,28.17,14.41,31.09,20.12,3.03,5.91,5.26,20.07-1.8,23.77ZM1353.36,769.62v2.09c1.36-.7,1.36-1.39,0-2.09Z"/>
    <path class="cls-2" d="M1523.78,1033.05l3.15-12.49-9.41,10.41c-1.41-14.85,2.35-24.41,15.92-31.11,4.8-2.37,23.13-10.02,23-2.21-.27,15.94-13.68,39.74-32.65,35.39Z"/>
    <path class="cls-2" d="M1743.32,1104.14c-13.55.77-31.61-4.45-38.08-17.3-8.39-16.64.38-15,12.96-8.8-.06-3.28-16.67-7-10.45-10.51,17.66-9.94,35.74,21.74,35.57,36.61Z"/>
    <path class="cls-2" d="M1389.94,1074.87c-19.15-.99-41.65-8.3-39.71-31.34l18.77,7.33-14.58-13.6c22.16-4.24,34.51,18.52,35.53,37.61Z"/>
    <path class="cls-2" d="M1728.68,1030.97c-19.22-2.86-42.56-9.37-39.69-33.45l25.03,15.7c-2.8-3.73-5.72-7.7-9.26-10.7-3.01-2.55-11.52-5.58-13.69-9.16,25.26-6.95,35.71,16.23,37.61,37.61Z"/>
    <path class="cls-2" d="M1613.69,1068.63l6.26,18.79c-22.66-1.72-24.24-25.49-22.98-43.89,13.08,3.13,31.53,15.72,31.54,30.3,0,24.22-10.31-9.77-14.82-5.2Z"/>
    <path class="cls-2" d="M1841.6,922.28c-9.05,13.46-29.31,26.79-43.86,13.57l8.31-7.3-10.43,2.06c4.35-22.05,31-14.5,45.99-8.33ZM1812.32,926.46c-2.94-1.5-5.58,1.32-4.16,2.05,2.94,1.5,5.58-1.32,4.16-2.05Z"/>
    <path class="cls-2" d="M1615.79,903.43c-4.05-10.31-3.27-45.97,14.69-40.98,20.01,5.56.82,39.32-14.69,40.98Z"/>
    <path class="cls-2" d="M1055.39,1210.81c-4.31,4.6-16.13,40.15-14.63,41.78,4.57,4.97,11.79-21.45,12.84-23.73,2.33-5.06,4.63-10.22,9.11-13.86,34.01,33.15,2.79,75.55-25.09,100.28-13.95-25.69-29-67.5-6.04-91.72,3.34-3.53,19.41-15.98,23.81-12.76Z"/>
    <path class="cls-2" d="M1153.67,1417.8c-6.65,12.94-14.1,26.66-12.52,41.79l14.62-36.23c4.63-8.08,14.91,12.89,16.13,16.97,5.99,20.08-5.56,40.84-18.28,55.8-2.45,2.88-15.98,17.72-18.73,15.74-14.37-33.11-28.16-82.11,18.79-94.06Z"/>
    <path class="cls-2" d="M1093.03,987.09l-29.26,26.12c6.18,3.62,10.39-5.06,14.8-8.2,5.93-4.23,12.19-8.26,18.63-11.67,10.42,41.07-30.11,64-64.79,69-.45-37.61,13.84-83.52,60.63-75.25Z"/>
    <path class="cls-2" d="M1174.56,1355.05c-22.04-4.8-57.55-12.66-58.64-40.72-.19-4.91-1.01-12.03,4.27-13.63,3.59,11.74,13.68,22.63,24.09,29.22-4.87-12.08-17.74-19.86-19.88-33.4,34.78-5.81,48,30.36,50.15,58.53Z"/>
    <path class="cls-2" d="M1147.39,1181.49l10.45-33.42c-5.41-1.08-3.65,1.15-5.23,4.07-4.89,9.02-6.96,19.31-8.34,29.36-18.28-21.69-4.39-43.85,14.63-58.53,5.61-4.33,20.13-15.36,21.93-5.2,4.68,26.38-.28,62.65-33.43,63.72Z"/>
    <path class="cls-2" d="M1316.76,1373.89c-4.06,8.45-8.35,17.55-8.34,27.15l13.57-25.04c23.48,25.05,2.89,56.4-19.84,73.13-10.51-26.75-23.12-65.25,14.61-75.24ZM1308.38,1409.4c1.04-8.7-3.09-8.7-2.05,0h2.05Z"/>
    <path class="cls-2" d="M1392.04,1281.87v30.32c0,3.15-6.1,17.46-8.67,20.6-5.18,6.32-14.49,11-22.68,9.7l6.24-25.08c-4.26,2.26-6.95,8.88-8.8,13.14s-1.3,15.99-6.3,7.18c-14.4-25.39,18.83-49.48,40.22-55.87Z"/>
    <path class="cls-2" d="M1412.95,1196.16c-3.75,24.38-17.72,48.91-45.99,43.89l7.32-16.71-13.59,12.52c-3.64-29.96,27.03-41.43,52.26-39.7Z"/>
    <path class="cls-2" d="M1245.67,1413.57c-3.33.59-19.67,7.18-20.9,8.42-1.02,1.04-1,5.08,2.93,3.98,2.49-.7,18.98-9.6,20.04-8.19,1.65,29.96-31.05,34.72-54.33,33.44,5.34-19.54,22.46-50.64,46.92-41.71,2.23.81,5.04.96,5.34,4.06ZM1221.62,1426.14v2.09c1.36-.7,1.36-1.39,0-2.09Z"/>
    <path class="cls-2" d="M1293.79,1219.14l-5.26-10.44,1.05,12.52c-23.8.22-24.18-25.85-22.97-43.89,15.05,7.28,33.39,14.32,31.46,34.53-.3,3.11-.55,6.51-4.27,7.28ZM1287.47,1206.59c.69-3.06-.88-4.37-3.14-6.22-.9,2.08,2.16,8.25,3.14,6.22Z"/>
    <path class="cls-2" d="M1599.04,1388.53l-16.77,11.42c-3.04,6.6-15.57,12.01-13.55,17.82,3.23-4.81,28.03-23.14,31.39-22.94,4.08.24,3.16,9.83,2.63,13.04-4.34,26.16-34.88,37.15-58.05,39.19-.37-29.76,18.12-70.92,54.34-58.52Z"/>
    <path class="cls-2" d="M1795.6,1283.98c3.94,3.36-14.83,12.07-15.77,14.62.2,3.51-14.16,11.76-11.39,14.64,1.38,1.43,26.1-23.44,33.42-20.9,5.76,36.04-30.03,47.17-58.52,52.25,3.32-29.83,14.39-67.32,52.25-60.62Z"/>
    <path class="cls-2" d="M1726.63,1386.42c7.91,3.93,10.6,12.32,15.67,18.8,5.14-3.98-11.24-19.5-9.42-20.88,30.28.11,32.32,37.98,21.91,58.53-21.37-10.32-41.38-31.83-28.16-56.45Z"/>
    <path class="cls-2" d="M1661.78,1187.81c-4.27,6.67-11.45,12.49-12.53,20.87l17.75-18.76c14.24,21.91-11.43,46.82-32.4,50.14-5.53-20.22-.26-55.39,27.17-52.25Z"/>
    <path class="cls-2" d="M1904.32,1340.42c-13.22-5.23-31.74-18.18-31.21-34.19.19-5.82,1.73-11.6,8.26-9.73l-2.13-4.15c26.42-1.26,30.28,27.74,25.08,48.07Z"/>
    <path class="cls-2" d="M1697.35,1361.32l-2.14-12.53c-5.81,1.41,2.24,13-5.26,12.62-18.08-.92-22.33-36.07-12.51-48.12,17.06,8.56,38.49,31.17,19.9,48.04Z"/>
    <path class="cls-1" d="M1444.3,1099.96c-4.11.37-2.1-4.09,1.09-6.22l-1.09,6.22Z"/>
    <path class="cls-1" d="M1400.38,834.43c-.73,1.42-3.55-1.22-2.05-4.16.73-1.42,3.55,1.22,2.05,4.16Z"/>
    <path class="cls-1" d="M1583.37,796.8c1.36.7,1.36,1.39,0,2.09v-2.09Z"/>
    <path class="cls-1" d="M1581.28,792.62c1.36.7,1.36,1.39,0,2.09v-2.09Z"/>
    <path class="cls-1" d="M1353.36,769.62c1.36.7,1.36,1.39,0,2.09v-2.09Z"/>
    <path class="cls-1" d="M1812.32,926.46c1.42.73-1.22,3.55-4.16,2.05-1.42-.73,1.22-3.55,4.16-2.05Z"/>
    <path class="cls-1" d="M1308.38,1409.4h-2.05c-1.04-8.7,3.09-8.7,2.05,0Z"/>
    <path class="cls-1" d="M1221.62,1426.14c1.36.7,1.36,1.39,0,2.09v-2.09Z"/>
    <path class="cls-1" d="M1287.47,1206.59c-.97,2.03-4.03-4.14-3.14-6.22,2.26,1.85,3.82,3.16,3.14,6.22Z"/>
  </g>
</svg>